<svg width="17" height="16" viewBox="0 0 17 16" fill="none" xmlns="http://www.w3.org/2000/svg">
<path d="M10.4278 7.61203L10.0417 8L10.4278 8.38797L15.7755 13.7616C15.7755 13.7616 15.7755 13.7616 15.7755 13.7616C15.7981 13.7843 15.8382 13.8553 15.8382 13.9707C15.8382 14.0862 15.798 14.1572 15.7755 14.1798L14.5871 15.3739L14.5871 15.3739C14.5389 15.4223 14.4677 15.4518 14.3806 15.4499C14.289 15.448 14.2161 15.4118 14.1784 15.3739L8.83074 10.0003L8.44089 9.60855L8.05104 10.0003L2.70336 15.3739L2.70334 15.3739C2.65516 15.4224 2.58388 15.4518 2.49688 15.4499C2.40526 15.448 2.33237 15.4118 2.2947 15.3739L1.10634 14.1798C0.985648 14.0585 0.985648 13.8829 1.10634 13.7616L6.45402 8.38797L6.84011 8L6.45402 7.61203L1.10634 2.23841C0.985648 2.11714 0.985648 1.94149 1.10634 1.82022L2.2947 0.626092C2.33237 0.588235 2.40526 0.55204 2.49688 0.55008C2.58388 0.548219 2.65516 0.57765 2.70334 0.626063L2.70336 0.626092L8.05104 5.99971L8.44089 6.39145L8.83074 5.99971L14.1784 0.626092C14.2161 0.588244 14.289 0.55204 14.3806 0.55008C14.4677 0.548218 14.5389 0.577658 14.5871 0.626063L14.5871 0.626092L15.7755 1.82022C15.798 1.84284 15.8382 1.9138 15.8382 2.0293C15.8382 2.14474 15.7981 2.21571 15.7755 2.23841C15.7755 2.23842 15.7755 2.23843 15.7755 2.23845L10.4278 7.61203Z" fill="black" stroke="#525C90" stroke-width="1.1"/>
</svg>
